<svg width="500" height="198" viewBox="0 0 500 198" fill="none" xmlns="http://www.w3.org/2000/svg">
<mask id="mask0_22242_30307" style="mask-type:luminance" maskUnits="userSpaceOnUse" x="6" y="39" width="491" height="120">
<path d="M496.688 39.5996H6.62207V158.4H496.688V39.5996Z" fill="white"/>
</mask>
<g mask="url(#mask0_22242_30307)">
<path d="M105.872 130.482L81.4334 116.17C77.9999 114.166 73.6095 115.358 71.6225 118.838C70.8526 120.209 70.5509 121.717 70.6966 123.183V151.154C70.6966 155.151 73.9009 158.399 77.8542 158.399C81.7976 158.399 85.0019 155.151 85.0019 151.154V135.07L98.6933 143.085C102.127 145.1 106.527 143.898 108.504 140.417C110.491 136.937 109.316 132.486 105.872 130.482Z" fill="black"/>
<path d="M45.0906 99.8122C45.1323 97.2283 43.7903 94.8236 41.5847 93.5263L17.1458 79.2248C16.0846 78.6024 14.8674 78.2754 13.6501 78.2754C11.1428 78.2754 8.8123 79.636 7.56383 81.8298C5.62869 85.2258 6.78353 89.5818 10.1336 91.5434L24.2205 99.7805L10.1336 108.028C8.51058 108.977 7.34535 110.507 6.86677 112.342C6.37777 114.177 6.62747 116.097 7.56383 117.742C8.8123 119.936 11.1428 121.296 13.6397 121.296C14.8674 121.296 16.0846 120.969 17.1458 120.347L41.5847 106.045C43.7694 104.759 45.1115 102.375 45.0906 99.8122Z" fill="black"/>
<path d="M22.6869 69.0888L47.1258 83.3903C49.9765 85.0674 53.493 84.5189 55.7401 82.2934C57.1656 80.9645 58.0497 79.066 58.0497 76.9567V48.2902C58.0497 44.2824 54.8454 41.0342 50.9023 41.0342C46.9487 41.0342 43.7444 44.2824 43.7444 48.2902V64.6064L29.8656 56.4851C26.4323 54.4708 22.0419 55.6624 20.0547 59.1429C18.0676 62.6234 19.2536 67.0742 22.6869 69.0888Z" fill="black"/>
<path d="M77.6533 100.972C77.6533 101.52 77.341 102.28 76.9559 102.681L67.2702 112.5C66.8851 112.89 66.1255 113.206 65.5847 113.206H63.1188C62.5778 113.206 61.8185 112.89 61.4334 112.5L51.7371 102.681C51.352 102.28 51.04 101.52 51.04 100.972V98.4725C51.04 97.9135 51.352 97.1542 51.7371 96.7638L61.4334 86.9341C61.8185 86.544 62.5778 86.2275 63.1188 86.2275H65.5847C66.1255 86.2275 66.8851 86.544 67.2702 86.9341L76.9559 96.7638C77.341 97.1542 77.6533 97.9135 77.6533 98.4725V100.972ZM69.0076 99.7697V99.6641C69.0076 99.2635 68.7785 98.7045 68.4977 98.4092L65.6367 95.5193C65.3556 95.224 64.8043 94.992 64.3987 94.992H64.2943C63.8993 94.992 63.3477 95.224 63.0566 95.5193L60.2059 98.4092C59.9248 98.6939 59.696 99.253 59.696 99.6641V99.7697C59.696 100.181 59.9248 100.74 60.2059 101.025L63.0566 103.925C63.3477 104.21 63.8993 104.442 64.2943 104.442H64.3987C64.8043 104.442 65.3556 104.21 65.6367 103.925L68.4977 101.025C68.7785 100.74 69.0076 100.181 69.0076 99.7697Z" fill="black"/>
<path d="M81.4306 83.3903L105.869 69.0888C109.303 67.0847 110.489 62.6234 108.502 59.1429C106.514 55.6624 102.124 54.4708 98.6908 56.4851L84.9991 64.5008V48.2902C84.9991 44.2824 81.7948 41.0342 77.8518 41.0342C73.8981 41.0342 70.6938 44.2824 70.6938 48.2902V76.3871C70.5584 77.8427 70.8395 79.3614 71.6196 80.7325C73.607 84.213 77.9974 85.4047 81.4306 83.3903Z" fill="black"/>
<path d="M52.0258 115.326C50.403 115.01 48.6656 115.274 47.1258 116.17L22.6869 130.482C19.2536 132.486 18.0676 136.937 20.0547 140.418C22.0419 143.909 26.4323 145.1 29.8656 143.086L43.7444 134.965V151.154C43.7444 155.152 46.9487 158.4 50.9023 158.4C54.8454 158.4 58.0497 155.152 58.0497 151.154V122.488C58.0497 118.87 55.4384 115.875 52.0258 115.326Z" fill="black"/>
<path d="M121.138 81.7454C119.161 78.2543 114.76 77.0627 111.327 79.077L86.8882 93.3786C84.5475 94.7497 83.2574 97.26 83.2988 99.8122C83.2783 102.354 84.5684 104.833 86.8882 106.183L111.327 120.495C114.76 122.498 119.151 121.307 121.138 117.826C123.125 114.346 121.939 109.895 118.506 107.881L104.669 99.7806L118.506 91.6807C121.949 89.6766 123.125 85.2259 121.138 81.7454Z" fill="black"/>
<path d="M496.678 98.1029V98.1134V98.3771C496.678 99.7271 495.566 100.729 494.191 100.729H459.86C459.923 101.552 460.026 102.353 460.191 103.144C461.784 110.685 468.152 116.296 475.715 116.36C475.734 116.36 476.122 116.36 476.715 116.36C476.807 116.36 476.9 116.36 476.996 116.36H477.711C477.867 116.36 478.026 116.36 478.191 116.349C478.337 116.349 478.483 116.339 478.629 116.328C478.638 116.328 478.648 116.328 478.658 116.318C481.165 116.117 483.695 115.094 485.953 113.449C485.953 113.449 485.953 113.449 485.963 113.449C486.079 113.364 486.201 113.269 486.317 113.175C486.337 113.164 486.357 113.143 486.39 113.122C486.483 113.048 486.585 112.963 486.691 112.879C486.731 112.848 486.764 112.816 486.804 112.784C486.89 112.721 486.973 112.647 487.056 112.573C487.109 112.531 487.168 112.478 487.221 112.436C487.284 112.373 487.347 112.31 487.42 112.257C487.483 112.194 487.556 112.131 487.619 112.067C487.668 112.025 487.721 111.972 487.774 111.919C487.857 111.846 487.93 111.772 488.013 111.698C488.052 111.656 488.095 111.603 488.138 111.561C488.221 111.476 488.304 111.392 488.387 111.308C488.43 111.266 488.46 111.234 488.503 111.192C488.585 111.097 488.668 111.002 488.751 110.907C488.794 110.875 488.824 110.833 488.854 110.791C488.95 110.696 489.032 110.601 489.115 110.506C489.145 110.464 489.188 110.422 489.218 110.38C489.304 110.274 489.377 110.179 489.46 110.084C489.499 110.031 489.542 109.979 489.582 109.926C489.655 109.831 489.728 109.747 489.791 109.662C489.854 109.578 489.907 109.504 489.956 109.43C490.009 109.357 490.062 109.293 490.115 109.22C490.198 109.103 490.281 108.987 490.354 108.871C490.383 108.829 490.407 108.798 490.426 108.766C490.635 108.46 490.83 108.144 491.029 107.817C491.029 107.817 491.029 107.806 491.039 107.796C491.082 107.722 491.135 107.658 491.185 107.585C491.208 107.553 491.228 107.521 491.258 107.5C491.291 107.447 491.33 107.416 491.364 107.374C491.393 107.342 491.423 107.311 491.456 107.279C491.496 107.247 491.529 107.215 491.569 107.184C491.602 107.152 491.632 107.12 491.675 107.1C491.728 107.057 491.787 107.015 491.85 106.984C491.893 106.952 491.946 106.92 491.986 106.899C492.039 106.878 492.079 106.857 492.122 106.836C492.165 106.815 492.205 106.804 492.238 106.783C492.297 106.762 492.35 106.752 492.413 106.73C492.443 106.72 492.466 106.709 492.496 106.699C492.695 106.656 492.903 106.625 493.099 106.625C493.317 106.625 493.546 106.656 493.754 106.72C493.764 106.72 493.764 106.72 493.778 106.72C493.86 106.752 493.953 106.773 494.036 106.815C494.056 106.825 494.079 106.825 494.099 106.836C494.191 106.878 494.274 106.92 494.36 106.973L494.4 106.994C495.546 107.838 495.9 109.314 495.201 110.527L495.191 110.538C495.109 110.675 495.026 110.812 494.94 110.939C494.92 110.97 494.9 111.002 494.88 111.034C492.443 114.788 489.135 117.783 485.443 119.576C485.36 119.608 485.287 119.65 485.205 119.692C485.191 119.692 485.172 119.703 485.162 119.703C483.456 120.505 481.625 121.064 479.668 121.296C479.625 121.296 479.585 121.306 479.542 121.306C479.377 121.327 479.211 121.348 479.046 121.359C478.95 121.359 478.857 121.37 478.754 121.38C478.638 121.38 478.513 121.391 478.4 121.401C478.172 121.401 477.94 121.412 477.711 121.412C477.681 121.412 476.817 121.412 476.234 121.412C475.903 121.412 475.715 121.412 475.695 121.412C464.145 121.327 454.844 111.561 454.844 99.6007C454.844 87.4402 464.208 77.6211 475.85 77.6211C476.195 77.6211 476.536 77.6317 476.88 77.6422C480.936 77.8531 484.681 79.2559 487.794 81.555C487.804 81.5656 487.814 81.5761 487.824 81.5761C488.003 81.7025 488.168 81.8398 488.334 81.9662C488.417 82.0401 488.513 82.114 488.605 82.1876C488.688 82.251 488.771 82.3249 488.854 82.3883C493.234 86.0902 496.191 91.6484 496.678 98.0821V98.1029ZM460.191 95.7615H491.268C489.728 88.1679 483.287 82.6731 475.85 82.6731C468.278 82.6731 461.887 88.0623 460.191 95.7615Z" fill="black"/>
<path d="M408.9 78.3593C409.288 78.7494 409.546 79.2767 409.609 79.8885C409.609 79.973 409.619 80.0572 409.619 80.1416V118.88C409.619 120.262 408.476 121.412 407.122 121.412C405.771 121.412 404.635 120.262 404.635 118.88V113.734C403.688 114.894 402.648 115.948 401.516 116.866C401.483 116.898 401.453 116.918 401.42 116.95C401.317 117.035 401.201 117.119 401.099 117.193C397.665 119.872 393.493 121.412 389.135 121.412C382.112 121.412 375.93 117.625 372.248 111.888C372.218 111.846 372.175 111.793 372.145 111.751C372.039 111.571 371.937 111.392 371.821 111.202C371.748 111.086 371.685 110.97 371.612 110.854C371.542 110.738 371.48 110.612 371.417 110.485C371.311 110.306 371.208 110.116 371.115 109.937C371.082 109.873 371.062 109.81 371.033 109.747C369.668 107.005 368.824 103.915 368.678 100.634C368.658 100.265 368.648 99.8961 368.648 99.5163C368.648 99.1368 368.658 98.7675 368.678 98.3982C368.824 95.1184 369.668 92.0279 371.033 89.2754C371.062 89.2226 371.082 89.1592 371.115 89.0959C371.208 88.9167 371.311 88.7269 371.417 88.5474C371.48 88.421 371.542 88.2943 371.612 88.1785C371.675 88.0623 371.748 87.9465 371.821 87.8303C371.927 87.6511 372.039 87.4614 372.145 87.2818C372.175 87.2396 372.218 87.1871 372.248 87.1449C375.93 81.4072 382.112 77.6211 389.135 77.6211C393.877 77.6211 398.364 79.3823 401.93 82.4513C402.91 83.2846 403.814 84.2023 404.635 85.2147V80.1416C404.635 80.0572 404.635 79.973 404.645 79.8885C404.708 79.2767 404.97 78.7494 405.354 78.3593C405.354 78.3593 405.354 78.3593 405.354 78.3487C405.397 78.3065 405.446 78.2748 405.489 78.2326C405.499 78.222 405.519 78.2009 405.529 78.1907C405.562 78.159 405.602 78.1379 405.635 78.1168C405.665 78.0956 405.698 78.064 405.728 78.0428C405.748 78.0323 405.771 78.0217 405.791 78.0006C405.844 77.9795 405.884 77.9478 405.937 77.9164C405.946 77.9164 405.956 77.9059 405.966 77.9059C406.029 77.8742 406.092 77.8425 406.155 77.8108C406.155 77.8108 406.155 77.8108 406.165 77.8108C406.311 77.7475 406.466 77.7052 406.622 77.6736C406.632 77.6736 406.655 77.6633 406.665 77.6633C406.728 77.6528 406.801 77.6422 406.874 77.6317C406.956 77.6317 407.039 77.6211 407.122 77.6211C407.215 77.6211 407.301 77.6317 407.384 77.6317C407.456 77.6422 407.516 77.6528 407.589 77.6633C407.602 77.6633 407.612 77.6736 407.632 77.6736C407.788 77.7052 407.943 77.7475 408.089 77.8108H408.099C408.162 77.8425 408.225 77.8742 408.278 77.9059C408.297 77.9059 408.307 77.9164 408.317 77.9164C408.36 77.9478 408.413 77.9795 408.453 78.0006C408.476 78.0217 408.506 78.0323 408.526 78.0428C408.559 78.064 408.589 78.0956 408.622 78.1168C408.652 78.1379 408.682 78.159 408.715 78.1907C408.735 78.2009 408.744 78.222 408.768 78.2326C408.807 78.2748 408.86 78.3065 408.89 78.3487C408.9 78.3593 408.9 78.3593 408.9 78.3593ZM389.135 116.36C397.675 116.36 404.635 108.808 404.635 99.5163C404.635 90.1822 397.675 82.5886 389.135 82.5886C380.655 82.5886 373.632 90.1717 373.632 99.5163C373.632 99.8116 373.642 100.096 373.652 100.381C373.652 100.508 373.675 100.624 373.675 100.74C373.685 100.909 373.695 101.077 373.715 101.236C373.725 101.373 373.748 101.499 373.758 101.626C373.778 101.773 373.788 101.932 373.807 102.079C373.831 102.195 373.85 102.301 373.86 102.406C373.893 102.575 373.913 102.744 373.943 102.912C373.966 102.997 373.986 103.071 373.996 103.144C374.039 103.345 374.079 103.535 374.122 103.735C374.132 103.777 374.142 103.819 374.162 103.862C375.93 111.076 382.006 116.36 389.135 116.36Z" fill="black"/>
<path d="M346.364 59.3535H345.688C345.605 59.3535 345.513 59.3535 345.426 59.3641C345.334 59.3535 345.251 59.3535 345.158 59.3535C344.92 59.3535 344.678 59.3535 344.44 59.3641C344.397 59.3641 344.347 59.3746 344.304 59.3746C344.119 59.3746 343.93 59.3852 343.741 59.4063C343.711 59.4063 343.668 59.4063 343.638 59.4063C343.44 59.4274 343.254 59.438 343.066 59.4591C343.046 59.4697 343.026 59.4697 343.003 59.4697C342.797 59.5014 342.599 59.5225 342.41 59.5542C342.4 59.5542 342.39 59.5542 342.39 59.5542C341.132 59.7545 339.996 60.1132 338.989 60.6194C338.989 60.63 338.976 60.63 338.966 60.63C338.821 60.7141 338.665 60.7986 338.519 60.8831C338.489 60.8936 338.466 60.9147 338.436 60.9355C338.311 61.0095 338.188 61.0834 338.062 61.1679C338.009 61.1992 337.97 61.2414 337.926 61.2731C337.824 61.3365 337.728 61.4104 337.625 61.484C337.552 61.5474 337.479 61.6107 337.407 61.6635C337.344 61.7163 337.281 61.7688 337.218 61.8216C337.105 61.9272 336.999 62.0219 336.897 62.1275C336.877 62.1486 336.854 62.1697 336.834 62.1909C336.708 62.3278 336.585 62.4545 336.46 62.5915C336.44 62.6232 336.42 62.6548 336.397 62.676C336.294 62.7918 336.188 62.9079 336.095 63.0241C336.066 63.0766 336.023 63.1294 335.993 63.1822C335.91 63.2878 335.837 63.3825 335.764 63.4881C335.741 63.5303 335.721 63.562 335.691 63.5934C335.605 63.7201 335.523 63.8468 335.45 63.9732C335.44 63.9943 335.43 64.0049 335.42 64.026C334.744 65.1546 334.264 66.4835 333.963 68.0866C333.963 68.1074 333.963 68.1391 333.953 68.1602C333.91 68.3605 333.88 68.5717 333.847 68.7826C333.837 68.846 333.827 68.909 333.827 68.9724C333.797 69.1519 333.774 69.3311 333.754 69.5208C333.744 69.6264 333.734 69.7317 333.725 69.8478C333.701 69.9954 333.681 70.1326 333.671 70.2907C333.662 70.4491 333.652 70.6072 333.642 70.7758C333.628 70.8814 333.628 70.987 333.619 71.1028C333.609 71.3243 333.599 71.5563 333.589 71.7886C333.589 71.8516 333.579 71.8938 333.579 71.9466C333.569 72.242 333.569 72.5479 333.569 72.8433V77.0092H328.386C328.064 76.9986 327.741 77.062 327.45 77.1672C326.514 77.5154 325.848 78.412 325.848 79.4561C325.848 80.4369 326.326 81.2701 327.075 81.7552C327.45 81.9978 327.887 82.1453 328.366 82.1664H328.386V82.177H333.569V118.965C333.556 119.017 333.569 119.059 333.569 119.112C333.569 119.144 333.569 119.176 333.569 119.207C333.599 119.798 333.837 120.336 334.224 120.747L334.234 120.758C334.284 120.81 334.347 120.863 334.4 120.916C334.41 120.926 334.42 120.926 334.43 120.937C334.473 120.979 334.526 121.011 334.566 121.042C334.589 121.064 334.619 121.085 334.638 121.095C334.662 121.116 334.681 121.127 334.711 121.137C335.119 121.401 335.595 121.549 336.105 121.549C336.188 121.549 336.274 121.538 336.347 121.527C336.834 121.485 337.281 121.274 337.645 120.968L337.655 120.958C337.708 120.916 337.751 120.873 337.791 120.821C337.801 120.81 337.824 120.8 337.834 120.789C337.873 120.747 337.907 120.705 337.936 120.673C338.334 120.188 338.552 119.587 338.519 118.965V82.177H344.095V82.1664H344.119C345.595 82.0928 346.678 80.922 346.635 79.4667C346.635 79.4561 346.635 79.4561 346.635 79.4456C346.645 79.3928 346.635 79.34 346.635 79.2872C346.635 79.266 346.635 79.2449 346.635 79.2344C346.592 78.6757 346.354 78.1691 345.979 77.7791C345.979 77.7791 345.979 77.7791 345.979 77.7685C345.97 77.7685 345.97 77.7685 345.97 77.7685C345.917 77.7157 345.877 77.6735 345.824 77.6316C345.804 77.6104 345.781 77.5999 345.771 77.5788C345.731 77.5471 345.698 77.526 345.658 77.4943C345.625 77.4732 345.585 77.4415 345.552 77.4204C345.532 77.4098 345.499 77.3887 345.479 77.3781C345.426 77.3468 345.377 77.3151 345.324 77.294C345.314 77.2834 345.294 77.2729 345.281 77.2729C345.221 77.2412 345.158 77.2095 345.095 77.1884C345.085 77.1778 345.075 77.1778 345.052 77.1672C344.993 77.1461 344.93 77.125 344.867 77.1042C344.847 77.1042 344.824 77.0937 344.804 77.0937C344.741 77.0831 344.688 77.062 344.628 77.0514C344.595 77.0514 344.566 77.0514 344.532 77.0409C344.493 77.0303 344.44 77.0303 344.387 77.0197C344.347 77.0197 344.304 77.0197 344.274 77.0197C344.241 77.0197 344.211 77.0092 344.178 77.0092C344.148 77.0092 344.105 77.0092 344.095 77.0092H338.519V72.8538C338.519 72.8221 338.519 72.7905 338.519 72.7693C338.529 72.5585 338.529 72.3473 338.539 72.147C338.539 72.0942 338.539 72.0311 338.552 71.9783C338.552 71.7991 338.562 71.6196 338.572 71.451C338.572 71.4193 338.582 71.3771 338.582 71.3454C338.592 71.1451 338.612 70.9448 338.635 70.7547C338.83 68.6981 339.268 67.4009 339.728 66.6099C339.738 66.5888 339.738 66.5782 339.748 66.5571C339.777 66.5043 339.821 66.4518 339.85 66.399C339.874 66.3568 339.903 66.3145 339.933 66.2723C339.946 66.2512 339.966 66.2093 339.986 66.1881C340.039 66.1142 340.092 66.0509 340.152 65.9875C340.807 65.2387 341.827 64.7853 343.304 64.6061C343.327 64.6061 343.337 64.5956 343.367 64.5956C343.45 64.585 343.546 64.5744 343.628 64.5744C343.668 64.5639 343.721 64.5639 343.764 64.5533C343.847 64.5533 343.92 64.5428 344.003 64.5428C344.066 64.5428 344.119 64.5322 344.191 64.5322C344.264 64.5217 344.337 64.5216 344.41 64.5216C344.483 64.5216 344.556 64.5111 344.628 64.5111C344.701 64.5111 344.774 64.5111 344.847 64.5111C344.95 64.5111 345.052 64.5111 345.158 64.5111H345.168C345.251 64.5111 345.324 64.5005 345.407 64.49C345.499 64.5005 345.595 64.5111 345.688 64.5111H346.364C347.758 64.5111 348.903 63.3508 348.903 61.9272C348.903 60.5032 347.758 59.3535 346.364 59.3535Z" fill="black"/>
<path d="M359.788 59.4277C359.788 59.4277 359.778 59.4171 359.765 59.4171C359.715 59.396 359.672 59.3752 359.609 59.3646C359.589 59.3541 359.56 59.3435 359.526 59.333C359.487 59.3224 359.444 59.3118 359.401 59.3013C359.361 59.2907 359.318 59.2696 359.288 59.2696C359.235 59.259 359.195 59.2485 359.142 59.2485C359.099 59.2379 359.069 59.2379 359.026 59.2274C358.944 59.2168 358.851 59.2168 358.768 59.2168C357.414 59.2168 356.271 60.3665 356.271 61.7377V118.88C356.271 120.262 357.414 121.412 358.768 121.412C358.851 121.412 358.944 121.412 359.026 121.401C359.04 121.401 359.06 121.391 359.07 121.391C359.142 121.38 359.215 121.37 359.288 121.359C359.298 121.359 359.318 121.349 359.341 121.349C359.401 121.327 359.464 121.317 359.526 121.296C359.536 121.296 359.546 121.296 359.56 121.285C360.517 120.979 361.222 120.157 361.328 119.144C361.338 119.06 361.348 118.976 361.348 118.88V61.7377C361.348 61.6532 361.338 61.5687 361.328 61.4846C361.232 60.5563 360.629 59.7864 359.788 59.4277Z" fill="black"/>
<path d="M168.766 107.964C168.745 107.817 168.745 107.679 168.724 107.543C168.714 107.437 168.703 107.342 168.693 107.247C168.672 107.131 168.662 107.026 168.641 106.91C168.62 106.804 168.599 106.699 168.578 106.583C168.568 106.498 168.547 106.403 168.526 106.319C168.495 106.192 168.474 106.076 168.443 105.95C168.422 105.887 168.401 105.813 168.381 105.75C168.35 105.612 168.308 105.486 168.256 105.359C168.246 105.306 168.225 105.254 168.214 105.212C168.162 105.064 168.11 104.927 168.048 104.779C168.038 104.758 168.027 104.726 168.017 104.695C167.944 104.547 167.881 104.389 167.808 104.241C167.798 104.231 167.798 104.22 167.788 104.21C167.195 102.997 166.352 101.984 165.322 101.13C165.322 101.119 165.322 101.119 165.312 101.119C165.166 101.004 165.02 100.877 164.864 100.761C164.864 100.761 164.854 100.75 164.844 100.74C164.833 100.74 164.823 100.729 164.812 100.719C164.719 100.655 164.625 100.582 164.542 100.518C163.262 99.6007 161.847 98.8731 159.787 98.0715C159.756 98.061 159.725 98.0504 159.694 98.0398C159.662 98.0187 159.621 98.0082 159.59 97.987C158.424 97.5442 157.217 97.1221 155.979 96.7109C155.979 96.7109 155.979 96.7109 155.969 96.7109C155.969 96.7109 155.958 96.7109 155.958 96.7004C155.938 96.7004 155.917 96.6898 155.886 96.6793C155.771 96.637 155.647 96.5948 155.48 96.542C155.397 96.5209 155.334 96.4997 155.272 96.4789C154.856 96.3311 154.429 96.1942 154.002 96.0463C153.701 95.941 153.378 95.8354 152.993 95.7087C152.889 95.6774 152.64 95.5929 152.432 95.5295C152.421 95.5295 152.421 95.519 152.411 95.519C152.286 95.4767 152.161 95.4348 152.026 95.3926C150.985 95.055 150.132 94.7596 149.404 94.4854C148.218 94.0426 147.136 93.568 146.251 92.9984C146.231 92.9879 146.21 92.9773 146.2 92.9668C144.993 92.1863 144.16 91.2263 143.963 89.9713L143.952 89.9608C143.942 89.8763 143.932 89.7816 143.932 89.6971C143.921 89.676 143.921 89.6654 143.921 89.6549C143.911 89.5496 143.911 89.4546 143.911 89.349C143.911 89.2015 143.921 89.0539 143.932 88.9167C143.932 88.8744 143.932 88.8427 143.942 88.8111C143.952 88.6952 143.963 88.5896 143.973 88.4844C143.984 88.4527 143.984 88.421 143.994 88.3893C144.015 88.2735 144.036 88.1679 144.056 88.0517C144.067 88.0412 144.067 88.0201 144.077 87.9993C144.108 87.8725 144.14 87.7564 144.181 87.6406C144.181 87.63 144.181 87.63 144.181 87.63C144.722 85.9952 146.002 84.7824 147.51 83.9281C147.614 83.8753 147.719 83.8225 147.812 83.7697C147.916 83.7172 148.01 83.6644 148.103 83.6221C148.259 83.5482 148.416 83.4746 148.572 83.4113C148.665 83.369 148.749 83.3268 148.842 83.2951C149.009 83.2321 149.175 83.1687 149.342 83.1054C149.425 83.0737 149.518 83.042 149.612 83.0103C149.779 82.9579 149.935 82.9051 150.101 82.8628C150.205 82.8311 150.299 82.7995 150.403 82.7783C150.559 82.7361 150.715 82.7047 150.86 82.6625C150.965 82.6414 151.069 82.6203 151.173 82.5991C151.339 82.5675 151.495 82.5358 151.641 82.5147C151.735 82.5041 151.818 82.4935 151.911 82.4724C152.088 82.4513 152.275 82.4305 152.463 82.42C152.504 82.4094 152.546 82.4094 152.598 82.3988C152.827 82.3883 153.056 82.3777 153.274 82.3777C153.534 82.3777 153.795 82.3883 154.044 82.3988C154.086 82.3988 154.127 82.3988 154.158 82.3988C156 82.5147 157.488 82.9684 158.715 83.5693C158.809 83.6116 158.903 83.6644 158.997 83.7066C159.049 83.7383 159.101 83.7697 159.152 83.7908C159.267 83.8541 159.381 83.9175 159.506 83.9914C159.527 84.002 159.548 84.0125 159.569 84.0231C159.694 84.0967 159.818 84.1812 159.943 84.2551C159.953 84.2656 159.964 84.2656 159.964 84.2656C160.099 84.3498 160.235 84.4448 160.37 84.5293C160.37 84.5399 160.38 84.5399 160.38 84.5504C160.515 84.6346 160.64 84.7191 160.765 84.8141C160.817 84.856 160.859 84.8877 160.911 84.9194C161.202 85.1408 161.66 85.4995 162.076 85.8477C162.128 85.8793 162.17 85.9107 162.201 85.9424C162.513 86.206 162.804 86.438 163.085 86.6492C163.137 86.6911 163.179 86.7228 163.21 86.7439C163.22 86.7545 163.231 86.7651 163.241 86.7651C163.272 86.7862 163.304 86.8073 163.335 86.8284C163.408 86.8812 163.491 86.934 163.564 86.9865C163.595 87.0076 163.626 87.0182 163.657 87.0393C163.73 87.0815 163.803 87.1238 163.876 87.166C163.907 87.1766 163.928 87.1871 163.959 87.1977C164.042 87.2396 164.115 87.2713 164.199 87.303C164.219 87.3135 164.23 87.3135 164.251 87.3241C164.344 87.3558 164.438 87.3874 164.531 87.398C164.531 87.398 164.531 87.398 164.542 87.4086C164.75 87.4402 164.948 87.4508 165.155 87.398C165.176 87.398 165.197 87.3874 165.218 87.3874C165.27 87.3769 165.332 87.3558 165.384 87.3452C165.405 87.3346 165.416 87.3241 165.437 87.3135C165.457 87.3135 165.478 87.303 165.499 87.2924C165.582 87.2502 165.665 87.2083 165.749 87.1555C165.769 87.1555 165.78 87.1449 165.79 87.1343C165.884 87.071 165.967 87.0076 166.05 86.934C166.061 86.9235 166.061 86.9235 166.061 86.9235C166.134 86.8601 166.196 86.7862 166.258 86.7123C166.3 86.6598 166.342 86.5964 166.373 86.5331C166.383 86.5225 166.394 86.512 166.394 86.5014C166.831 85.7632 166.581 84.793 165.811 83.7383C165.801 83.7172 165.79 83.6961 165.769 83.6749C165.738 83.6327 165.717 83.601 165.686 83.5588C163.917 81.2386 159.891 78.6969 156.156 77.8848C156.135 77.8848 156.114 77.8848 156.094 77.8742C155.938 77.8425 155.771 77.8108 155.615 77.7792C155.574 77.7792 155.521 77.7686 155.48 77.758C155.345 77.7369 155.209 77.7158 155.074 77.7052C155.022 77.6947 154.97 77.6841 154.918 77.6841C154.793 77.6736 154.658 77.6633 154.533 77.6528C154.481 77.6422 154.429 77.6422 154.388 77.6317C154.211 77.6317 154.044 77.6211 153.878 77.6211C153.607 77.6211 153.337 77.6211 153.077 77.6317C152.931 77.6317 152.785 77.6422 152.629 77.6528C152.525 77.6633 152.4 77.6633 152.296 77.6633C152.088 77.6841 151.891 77.6947 151.693 77.7158C151.641 77.7158 151.578 77.7158 151.526 77.7264C151.298 77.7475 151.069 77.7686 150.85 77.8003C150.819 77.8003 150.798 77.8003 150.777 77.8003C150.538 77.832 150.309 77.8636 150.08 77.9059C150.07 77.9059 150.049 77.9059 150.039 77.9059C149.81 77.9372 149.581 77.9795 149.362 78.0217C149.352 78.0217 149.342 78.0323 149.321 78.0323C148.852 78.1168 148.395 78.222 147.958 78.3382C147.948 78.3382 147.948 78.3487 147.948 78.3487C147.729 78.4015 147.51 78.4646 147.292 78.5279C147.084 78.5913 146.886 78.6652 146.699 78.7286C146.678 78.7286 146.668 78.7388 146.647 78.7388C146.46 78.8127 146.272 78.8761 146.085 78.95C146.064 78.9606 146.044 78.9711 146.033 78.9711C145.846 79.0447 145.679 79.1186 145.502 79.2031C145.482 79.2137 145.45 79.2137 145.43 79.2348C145.274 79.2978 145.107 79.3823 144.961 79.4562C144.92 79.4773 144.889 79.4879 144.857 79.509C144.701 79.5826 144.556 79.6565 144.41 79.741C144.368 79.7621 144.337 79.7833 144.296 79.804C144.16 79.878 144.025 79.9624 143.89 80.0469C143.848 80.0677 143.807 80.0888 143.765 80.1205C143.588 80.2261 143.422 80.3419 143.255 80.4475C143.057 80.5951 142.86 80.7323 142.683 80.8798C142.662 80.8798 142.652 80.8904 142.652 80.901C141.767 81.5656 141.008 82.2721 140.384 83.0948C140.363 83.1265 140.332 83.1582 140.311 83.1898C140.238 83.3057 140.155 83.4113 140.082 83.5165C140.03 83.601 139.978 83.6855 139.926 83.7697C139.884 83.833 139.843 83.8964 139.812 83.9597C139.728 84.0967 139.655 84.234 139.583 84.3815C139.572 84.4026 139.562 84.4132 139.551 84.4343C138.99 85.5629 138.667 86.8601 138.542 88.4316C138.542 88.4527 138.542 88.4738 138.532 88.4949C138.521 88.7692 138.501 89.0434 138.49 89.3384C138.49 89.5602 138.49 89.7816 138.501 90.003C138.501 90.0347 138.501 90.0664 138.501 90.0981C138.615 93.1143 139.968 95.382 142.412 97.1432C142.433 97.1538 142.454 97.1749 142.475 97.1855C142.579 97.2594 142.683 97.333 142.787 97.4069C142.86 97.4597 142.943 97.5019 143.016 97.5547C143.037 97.5755 143.068 97.5861 143.089 97.5967C145.502 99.1473 148.457 100.033 150.923 100.74C152.13 101.098 153.212 101.404 153.534 101.499C153.607 101.52 153.68 101.541 153.743 101.573C155.22 102.068 156.354 102.469 157.29 102.849C157.363 102.87 157.425 102.902 157.498 102.923C157.519 102.933 157.55 102.944 157.582 102.965C158.112 103.187 158.632 103.419 159.132 103.672C159.548 103.883 159.933 104.104 160.318 104.336C161.306 104.959 162.066 105.633 162.575 106.372C162.596 106.393 162.606 106.414 162.617 106.435C162.669 106.498 162.711 106.562 162.742 106.635C162.773 106.678 162.794 106.709 162.815 106.752C162.846 106.804 162.877 106.857 162.898 106.91C162.929 106.962 162.95 107.026 162.981 107.079C163.002 107.12 163.023 107.163 163.044 107.205C163.064 107.268 163.096 107.332 163.116 107.405C163.127 107.437 163.148 107.479 163.158 107.521C163.179 107.595 163.2 107.669 163.22 107.743C163.231 107.775 163.241 107.806 163.251 107.848C163.272 107.922 163.293 108.007 163.304 108.08C163.314 108.112 163.324 108.154 163.324 108.186C163.335 108.27 163.345 108.355 163.356 108.439C163.366 108.47 163.366 108.502 163.366 108.534C163.376 108.661 163.387 108.776 163.387 108.903C163.387 109.093 163.376 109.272 163.366 109.452C163.366 109.504 163.356 109.557 163.356 109.61C163.345 109.747 163.324 109.884 163.293 110.021C163.293 110.063 163.283 110.105 163.272 110.148C163.21 110.517 163.106 110.865 162.971 111.213C162.96 111.223 162.96 111.234 162.96 111.244C162.888 111.403 162.815 111.571 162.731 111.719C162.721 111.74 162.721 111.751 162.711 111.761C162.534 112.099 162.326 112.426 162.066 112.731C161.941 112.89 161.805 113.037 161.67 113.185C161.66 113.185 161.66 113.185 161.66 113.196C161.379 113.48 161.067 113.744 160.744 113.987C160.734 113.997 160.723 113.997 160.723 114.008C160.567 114.113 160.411 114.229 160.255 114.324C160.235 114.345 160.214 114.356 160.193 114.366C159.922 114.535 159.631 114.704 159.34 114.851C159.236 114.904 159.132 114.957 159.017 115.01C158.903 115.062 158.778 115.126 158.653 115.178C158.549 115.221 158.455 115.263 158.351 115.305C158.07 115.41 157.8 115.516 157.519 115.611C157.477 115.621 157.436 115.632 157.394 115.653C157.228 115.706 157.061 115.748 156.895 115.801C156.853 115.811 156.801 115.832 156.759 115.843C156.208 115.991 155.667 116.107 155.157 116.191C155.147 116.191 155.137 116.191 155.126 116.191C154.866 116.233 154.616 116.265 154.377 116.296C154.284 116.307 154.2 116.318 154.106 116.318C154.023 116.328 153.94 116.328 153.847 116.339C153.649 116.349 153.441 116.36 153.253 116.36C152.868 116.36 152.494 116.349 152.13 116.328C151.984 116.328 151.839 116.318 151.693 116.307C151.495 116.286 151.287 116.275 151.1 116.254C150.923 116.244 150.736 116.223 150.569 116.201C150.413 116.18 150.267 116.159 150.122 116.138C149.8 116.086 149.498 116.043 149.196 115.98C149.061 115.948 148.915 115.927 148.78 115.895C148.624 115.854 148.468 115.822 148.312 115.78C148.135 115.737 147.968 115.695 147.802 115.642C147.687 115.611 147.562 115.579 147.458 115.548C147.178 115.463 146.897 115.368 146.626 115.263C146.564 115.242 146.501 115.221 146.439 115.2C145.836 114.968 145.243 114.714 144.66 114.419C144.639 114.409 144.608 114.387 144.577 114.377C144.202 114.187 143.567 113.828 142.964 113.48C142.912 113.449 142.85 113.417 142.798 113.386C142.371 113.132 142.007 112.922 141.663 112.753C141.632 112.731 141.611 112.721 141.591 112.71C141.57 112.7 141.549 112.689 141.539 112.689C141.445 112.647 141.372 112.605 141.289 112.573C141.258 112.563 141.237 112.552 141.216 112.542C140.998 112.457 140.8 112.394 140.602 112.373C140.54 112.363 140.477 112.363 140.415 112.363C140.394 112.352 140.373 112.352 140.352 112.352C139.957 112.352 139.614 112.489 139.292 112.795C139.219 112.858 139.156 112.922 139.094 112.995C139.083 113.016 139.062 113.037 139.042 113.058C139 113.111 138.969 113.154 138.938 113.196C138.917 113.227 138.896 113.259 138.886 113.28C138.854 113.322 138.823 113.364 138.802 113.407C138.782 113.438 138.771 113.47 138.761 113.501C138.74 113.544 138.719 113.586 138.699 113.628C138.688 113.66 138.678 113.681 138.667 113.713C138.647 113.765 138.636 113.807 138.626 113.849C138.615 113.881 138.605 113.902 138.605 113.934C138.594 113.987 138.584 114.039 138.574 114.092C138.574 114.113 138.563 114.134 138.563 114.155C138.553 114.229 138.553 114.292 138.553 114.356C138.553 114.366 138.553 114.377 138.553 114.387C138.553 114.472 138.563 114.545 138.584 114.63C138.584 114.64 138.584 114.662 138.584 114.672C138.605 114.736 138.615 114.809 138.636 114.872C138.646 114.904 138.657 114.936 138.667 114.968C138.688 115.02 138.699 115.083 138.73 115.136C138.74 115.168 138.75 115.189 138.761 115.21C138.896 115.527 139.114 115.854 139.396 116.17C139.697 116.507 140.082 116.845 140.53 117.193C140.54 117.193 140.54 117.193 140.54 117.203C140.665 117.288 140.79 117.383 140.925 117.478C140.956 117.499 140.977 117.52 141.008 117.53C141.372 117.783 141.757 118.026 142.194 118.279C142.298 118.342 142.402 118.406 142.506 118.459C142.61 118.522 142.714 118.574 142.818 118.627C142.943 118.701 143.089 118.775 143.224 118.849C143.318 118.891 143.401 118.944 143.495 118.986C143.703 119.091 143.921 119.197 144.14 119.302C144.171 119.323 144.192 119.334 144.223 119.344C144.462 119.46 144.701 119.566 144.941 119.661C145.045 119.703 145.138 119.745 145.243 119.788C145.263 119.798 145.284 119.809 145.305 119.809C147.531 120.694 150.278 121.285 152.702 121.391C152.879 121.401 153.066 121.412 153.243 121.412H153.253C153.337 121.412 153.409 121.412 153.493 121.401C153.68 121.401 153.867 121.401 154.054 121.401C154.075 121.401 154.096 121.401 154.117 121.391C158.06 121.264 161.296 120.23 164.053 118.184C164.053 118.174 164.053 118.174 164.053 118.174C167.111 115.832 168.797 112.531 168.797 108.893C168.797 108.661 168.787 108.429 168.776 108.207C168.776 108.123 168.766 108.038 168.766 107.964Z" fill="black"/>
<path d="M194.202 77.7051C194.192 77.7051 194.181 77.7051 194.171 77.7051C189.322 77.7051 184.745 79.7092 181.436 83.2527V80.2365C181.436 78.8442 180.375 77.7051 179.033 77.7051C178.939 77.7051 178.856 77.7156 178.773 77.7156C178.18 77.779 177.66 78.0427 177.275 78.4331C177.264 78.4331 177.264 78.4331 177.254 78.4436C177.223 78.4855 177.181 78.5278 177.15 78.57C177.129 78.5806 177.108 78.6017 177.098 78.6228C177.067 78.6545 177.046 78.6862 177.025 78.7178C177.004 78.7492 176.983 78.7809 176.952 78.8126C176.942 78.8337 176.931 78.8548 176.921 78.8759C176.89 78.9287 176.859 78.9815 176.827 79.0234C176.827 79.034 176.827 79.0446 176.817 79.0551C176.786 79.1185 176.755 79.1818 176.723 79.2452C176.671 79.4033 176.619 79.5613 176.588 79.7197C176.588 79.7303 176.588 79.7409 176.578 79.7409C176.567 79.825 176.557 79.8989 176.547 79.9728C176.547 80.0573 176.536 80.1415 176.536 80.2365V119.408L176.505 119.576L176.63 119.682C176.63 119.735 176.64 119.808 176.671 119.882C176.671 119.893 176.682 119.914 176.682 119.924C176.703 119.977 176.734 120.04 176.786 120.093C177.108 120.715 177.701 121.19 178.398 121.401L178.45 121.412H179.033C179.127 121.412 179.22 121.412 179.314 121.401C179.376 121.39 179.439 121.369 179.501 121.359C179.532 121.359 179.553 121.359 179.584 121.348C179.668 121.327 179.751 121.306 179.834 121.274C179.834 121.274 179.834 121.274 179.845 121.274C180.281 121.116 180.656 120.842 180.906 120.473C180.916 120.462 180.926 120.452 180.937 120.441C181.103 120.262 181.197 120.072 181.291 119.808C181.301 119.777 181.312 119.756 181.312 119.735C181.322 119.724 181.322 119.724 181.322 119.713C181.363 119.587 181.395 119.46 181.426 119.334L181.436 119.292V95.5822C181.603 88.5159 187.304 82.7676 194.15 82.7571C194.16 82.7571 194.16 82.7571 194.171 82.7571C201.141 82.7571 206.812 88.5053 206.812 95.5716V118.88C206.812 118.975 206.822 119.059 206.832 119.144C206.884 119.756 207.144 120.283 207.529 120.673C207.529 120.673 207.54 120.673 207.54 120.684C207.581 120.726 207.623 120.758 207.664 120.8C207.685 120.821 207.696 120.831 207.716 120.842C207.748 120.874 207.779 120.895 207.81 120.916C207.841 120.947 207.873 120.968 207.904 120.99C207.935 121 207.956 121.011 207.977 121.032C208.018 121.063 208.07 121.085 208.112 121.116C208.122 121.116 208.133 121.127 208.154 121.127C208.206 121.158 208.268 121.19 208.33 121.222H208.341C208.486 121.285 208.643 121.327 208.799 121.359C208.819 121.359 208.83 121.369 208.84 121.369C208.913 121.38 208.975 121.39 209.048 121.401C209.132 121.412 209.215 121.412 209.309 121.412C209.392 121.412 209.475 121.412 209.558 121.401C209.631 121.39 209.704 121.38 209.766 121.369C209.777 121.369 209.797 121.359 209.808 121.359C209.974 121.327 210.12 121.285 210.276 121.222C210.338 121.19 210.401 121.158 210.463 121.127C210.474 121.127 210.484 121.116 210.495 121.116C210.547 121.085 210.588 121.063 210.64 121.032C210.661 121.011 210.682 121 210.703 120.99C210.734 120.968 210.765 120.947 210.796 120.916C210.827 120.895 210.869 120.874 210.9 120.842C210.911 120.831 210.931 120.821 210.942 120.8C210.983 120.758 211.035 120.726 211.077 120.684C211.077 120.673 211.077 120.673 211.077 120.673C211.472 120.283 211.732 119.756 211.785 119.144C211.795 119.059 211.795 118.975 211.795 118.88V95.5716C211.795 85.7313 203.909 77.7262 194.202 77.7051Z" fill="black"/>
<path d="M239.08 77.6211C250.379 77.6211 259.566 87.4402 259.566 99.5163C259.566 111.593 250.379 121.412 239.08 121.412C238.727 121.412 238.383 121.401 238.04 121.38C237.988 121.38 237.946 121.38 237.894 121.37C237.592 121.359 237.291 121.327 236.999 121.296C236.989 121.296 236.978 121.296 236.968 121.296C232.505 120.8 228.333 118.733 225.014 115.347C224.879 115.21 224.733 115.073 224.608 114.925C224.598 114.925 224.598 114.915 224.587 114.915C224.515 114.841 224.452 114.757 224.38 114.672C224.223 114.504 224.067 114.324 223.911 114.145C223.786 114.008 223.672 113.849 223.547 113.702C223.464 113.586 223.37 113.47 223.276 113.354C223.089 113.122 222.912 112.879 222.746 112.637C222.725 112.605 222.704 112.573 222.683 112.542C220.655 109.662 219.333 106.34 218.834 102.818C218.782 102.491 218.751 102.164 218.72 101.836C218.709 101.805 218.709 101.763 218.699 101.721C218.668 101.415 218.647 101.119 218.636 100.813C218.626 100.75 218.626 100.687 218.626 100.613C218.605 100.254 218.595 99.8855 218.595 99.5163C218.595 99.1473 218.605 98.7781 218.626 98.4193C218.626 98.3458 218.626 98.2824 218.636 98.219C218.647 97.9131 218.668 97.6072 218.699 97.3119C218.709 97.27 218.709 97.2277 218.72 97.196C218.751 96.869 218.782 96.542 218.834 96.2153C219.333 92.6925 220.655 89.3701 222.683 86.4908C222.694 86.4592 222.715 86.4275 222.735 86.4067C222.912 86.1532 223.089 85.9107 223.276 85.6681C223.36 85.5629 223.453 85.4573 223.537 85.3414C223.662 85.183 223.786 85.0355 223.911 84.8771C224.057 84.7085 224.203 84.5504 224.359 84.3815C224.431 84.297 224.515 84.2023 224.587 84.1178C224.598 84.1178 224.598 84.1072 224.608 84.1072C224.723 83.9703 224.858 83.8436 224.983 83.7172C228.302 80.3208 232.484 78.2326 236.968 77.7369C236.978 77.7369 236.989 77.7369 236.999 77.7369C237.291 77.7052 237.592 77.6841 237.894 77.6633C237.946 77.6633 237.988 77.6528 238.04 77.6528C238.383 77.6317 238.727 77.6211 239.08 77.6211ZM254.499 97.7973C254.499 97.7867 254.499 97.7867 254.499 97.7762C254.134 93.9792 252.595 90.5515 250.295 87.9042C250.191 87.7881 250.098 87.6722 249.994 87.5561C249.931 87.4927 249.869 87.4297 249.807 87.3663C249.682 87.2396 249.567 87.1132 249.442 86.9865C249.328 86.8707 249.203 86.7651 249.089 86.6598C249.016 86.5964 248.953 86.5225 248.88 86.4592C248.693 86.2905 248.506 86.1325 248.319 85.9741C248.319 85.9741 248.308 85.9741 248.308 85.9635C246.134 84.1812 243.523 83.0103 240.714 82.6836C240.682 82.6836 240.662 82.6731 240.641 82.6731C240.422 82.6414 240.214 82.6308 239.996 82.6203C239.944 82.6097 239.902 82.6097 239.86 82.6097C239.6 82.5886 239.34 82.5886 239.08 82.5886C238.82 82.5886 238.56 82.5886 238.3 82.6097C238.258 82.6097 238.217 82.6097 238.165 82.6203C237.946 82.6308 237.738 82.6414 237.52 82.6731C237.499 82.6731 237.478 82.6836 237.447 82.6836C234.638 83.0103 232.026 84.1812 229.852 85.9635C229.852 85.9741 229.841 85.9741 229.841 85.9741C229.654 86.1325 229.467 86.2905 229.279 86.4592C229.207 86.5225 229.144 86.5859 229.072 86.6492C228.957 86.7651 228.832 86.8707 228.718 86.9865C228.603 87.1027 228.489 87.229 228.364 87.3558C228.302 87.4191 228.239 87.4822 228.166 87.5561C228.073 87.6617 227.979 87.7775 227.875 87.8937C225.576 90.5409 224.026 93.9792 223.662 97.7762C223.662 97.7867 223.662 97.7867 223.662 97.7973C223.641 98.0398 223.62 98.2824 223.61 98.5355C223.61 98.5777 223.599 98.6197 223.599 98.6619C223.589 98.9467 223.578 99.2315 223.578 99.5163C223.578 108.787 230.611 116.36 239.08 116.36C247.549 116.36 254.582 108.787 254.582 99.5163C254.582 99.2315 254.572 98.9467 254.561 98.6619C254.561 98.6197 254.551 98.5777 254.551 98.5355C254.54 98.2824 254.52 98.0398 254.499 97.7973Z" fill="black"/>
<path d="M319.771 78.7081C319.751 78.6869 319.74 78.6658 319.719 78.6447C319.47 78.3282 319.137 78.0751 318.762 77.9171C318.762 77.9171 318.762 77.9171 318.752 77.9171C318.71 77.8854 318.659 77.8748 318.617 77.8537C318.596 77.8537 318.575 77.8431 318.544 77.8326C318.211 77.7164 317.847 77.6953 317.493 77.7481H317.483C316.765 77.8643 316.078 78.3071 315.693 78.9612C315.693 78.9612 315.693 78.9612 315.683 78.9612C315.631 79.0664 315.568 79.172 315.527 79.2773L315.516 79.2879V79.2984L303.594 112.384L294.23 89.7928C294.136 89.5819 294.011 89.3918 293.866 89.2126C293.356 88.6114 292.576 88.2319 291.775 88.2319C291.65 88.2319 291.535 88.2319 291.41 88.2635C291.4 88.2635 291.39 88.2635 291.369 88.2635C290.537 88.4111 289.756 89.0018 289.403 89.7928C289.403 89.8033 289.403 89.8033 289.403 89.8033L280.039 112.395L275.503 99.8967L268.033 79.2984C267.991 79.1826 267.95 79.0876 267.898 78.9823C267.887 78.9717 267.887 78.9717 267.877 78.9612C267.648 78.5285 267.284 78.191 266.847 77.9801C266.847 77.9801 266.836 77.9801 266.836 77.9695C266.618 77.8748 266.389 77.8009 266.15 77.7587C266.129 77.7587 266.118 77.7587 266.098 77.7481C265.983 77.7375 265.858 77.727 265.744 77.727H265.734C265.703 77.727 265.682 77.727 265.661 77.727C265.609 77.727 265.557 77.727 265.505 77.7375C265.473 77.7375 265.432 77.7481 265.401 77.7481C265.349 77.7587 265.307 77.7587 265.265 77.7692C265.234 77.7798 265.203 77.7798 265.172 77.7903C265.12 77.8009 265.068 77.8115 265.016 77.8326C264.995 77.8431 264.974 77.8431 264.953 77.8537C264.901 77.8748 264.849 77.8854 264.797 77.9171C264.797 77.9171 264.797 77.9171 264.787 77.9171C264.36 78.1068 264.017 78.4338 263.767 78.8133C263.757 78.8345 263.747 78.845 263.736 78.8661C263.726 78.8873 263.715 78.9084 263.705 78.9295C263.517 79.246 263.403 79.6149 263.361 79.9842C263.32 80.3742 263.372 80.7857 263.528 81.1652L272.174 104.716L277.719 119.82C277.719 119.82 277.719 119.82 277.719 119.83C277.948 120.4 278.281 120.79 278.739 121.001C278.749 121.011 278.77 121.022 278.78 121.033C278.791 121.043 278.801 121.054 278.822 121.064C278.822 121.075 278.832 121.075 278.843 121.085C278.863 121.096 278.874 121.106 278.895 121.128C278.905 121.128 278.905 121.128 278.915 121.128C278.999 121.18 279.103 121.222 279.238 121.233C279.248 121.233 279.259 121.243 279.269 121.243C279.311 121.254 279.352 121.275 279.394 121.286C279.415 121.286 279.436 121.296 279.457 121.296C279.716 121.381 279.883 121.412 280.091 121.412C280.206 121.412 280.309 121.402 280.424 121.381C280.507 121.37 280.601 121.349 280.684 121.317C280.705 121.307 280.726 121.307 280.747 121.296C280.83 121.275 280.913 121.243 280.996 121.201C281.027 121.191 281.058 121.18 281.09 121.159C281.142 121.128 281.204 121.096 281.267 121.064C281.308 121.033 281.36 121.001 281.412 120.969C281.444 120.948 281.475 120.916 281.506 120.895C281.579 120.843 281.641 120.79 281.714 120.727C281.724 120.716 281.735 120.706 281.745 120.684C281.818 120.611 281.891 120.537 281.964 120.452C281.964 120.442 281.974 120.431 281.985 120.421C282.047 120.337 282.109 120.242 282.161 120.146C282.213 120.041 282.265 119.925 282.307 119.809L282.317 119.778L282.349 119.735L282.38 119.661L291.775 96.9224L301.253 119.746C301.325 119.978 301.44 120.189 301.596 120.389C301.617 120.421 301.638 120.442 301.658 120.474C301.71 120.537 301.762 120.6 301.825 120.663C301.856 120.684 301.887 120.716 301.918 120.737C301.97 120.79 302.033 120.843 302.095 120.895C302.126 120.916 302.147 120.938 302.178 120.948C302.251 121.001 302.324 121.054 302.397 121.096C302.418 121.106 302.439 121.117 302.459 121.128C302.543 121.169 302.615 121.212 302.709 121.243C302.73 121.254 302.751 121.265 302.782 121.265C302.855 121.296 302.928 121.328 303.011 121.349C303.115 121.37 303.219 121.391 303.312 121.412H303.625C303.75 121.412 303.864 121.402 303.978 121.381C304.009 121.381 304.03 121.381 304.061 121.37C304.166 121.349 304.259 121.328 304.353 121.296C304.384 121.286 304.405 121.275 304.426 121.265C304.53 121.233 304.634 121.18 304.727 121.128C304.738 121.128 304.748 121.117 304.759 121.117C304.873 121.043 304.988 120.969 305.081 120.895C305.497 120.579 305.799 120.168 306.007 119.661V119.651L311.864 103.662L320.105 81.1652C320.427 80.3742 320.302 79.5096 319.855 78.8345C319.834 78.7922 319.803 78.75 319.771 78.7081Z" fill="black"/>
<path d="M452.086 79.4141C452.086 79.3719 452.076 79.3191 452.066 79.2768C452.066 79.2455 452.056 79.2138 452.043 79.1821C452.033 79.1293 452.023 79.0765 452.013 79.0343C452.003 79.0026 451.993 78.9713 451.983 78.9501C451.97 78.8868 451.95 78.834 451.92 78.7812C451.92 78.7601 451.91 78.7495 451.9 78.7287C451.867 78.6548 451.838 78.5914 451.795 78.5281C451.795 78.5175 451.795 78.5175 451.795 78.5175C451.669 78.2961 451.513 78.1063 451.338 77.9377C451.328 77.9271 451.328 77.9271 451.328 77.9271C451.318 77.9166 451.318 77.9166 451.318 77.9166C450.43 77.02 449.182 76.9038 448.205 77.6001C448.175 77.6212 448.152 77.6423 448.122 77.6529C448.079 77.6843 448.04 77.7159 447.996 77.7476C447.934 77.811 447.874 77.8638 447.811 77.9271C447.811 77.9271 447.801 77.9271 447.801 77.9377L423.424 102.027V61.7377C423.424 61.6532 423.424 61.5687 423.414 61.4846C423.318 60.5563 422.705 59.7864 421.874 59.4277C421.864 59.4277 421.864 59.4171 421.851 59.4171C421.801 59.396 421.748 59.3752 421.695 59.3646C421.675 59.3541 421.646 59.3435 421.612 59.333C421.573 59.3224 421.53 59.3118 421.477 59.3013C421.447 59.2907 421.404 59.2802 421.364 59.2696C421.321 59.259 421.271 59.2485 421.228 59.2485C421.185 59.2379 421.155 59.2379 421.112 59.2274C421.02 59.2168 420.937 59.2168 420.854 59.2168C419.49 59.2168 418.357 60.3665 418.357 61.7377V118.88C418.357 120.262 419.49 121.412 420.854 121.412C420.937 121.412 421.03 121.412 421.112 121.401C421.126 121.401 421.136 121.391 421.155 121.391C421.228 121.38 421.301 121.38 421.364 121.359C421.384 121.359 421.404 121.349 421.427 121.349C421.487 121.327 421.549 121.317 421.612 121.296C421.622 121.296 421.632 121.285 421.645 121.285C422.602 120.979 423.308 120.146 423.414 119.144C423.424 119.06 423.424 118.976 423.424 118.88V109.241L431.632 100.93L447.583 120.441C447.685 120.61 447.801 120.758 447.947 120.874C447.977 120.905 447.996 120.926 448.03 120.948C448.069 120.979 448.112 121.011 448.152 121.032C448.205 121.074 448.258 121.095 448.311 121.127C448.331 121.138 448.361 121.158 448.384 121.169C448.457 121.201 448.516 121.222 448.589 121.253C448.612 121.264 448.632 121.264 448.642 121.275C448.725 121.296 448.798 121.317 448.881 121.338C448.891 121.338 448.914 121.349 448.934 121.349C449.016 121.37 449.089 121.38 449.182 121.391C449.205 121.391 449.225 121.391 449.245 121.401C449.351 121.401 449.453 121.412 449.569 121.412C449.735 121.412 449.891 121.401 450.036 121.38C450.046 121.38 450.046 121.38 450.046 121.38C450.338 121.338 450.609 121.243 450.857 121.117C450.867 121.117 450.867 121.106 450.867 121.106C450.983 121.043 451.099 120.969 451.212 120.885L451.245 120.853C452.189 119.893 452.334 118.585 451.649 117.499C451.586 117.404 451.523 117.309 451.45 117.214L435.251 97.2701L451.338 81.5129C451.765 81.0701 452.023 80.5322 452.086 79.952C452.086 79.9415 452.086 79.9309 452.096 79.9203C452.096 79.8675 452.096 79.8042 452.096 79.7517C452.096 79.72 452.106 79.6884 452.106 79.6672C452.106 79.6461 452.106 79.6356 452.106 79.625C452.106 79.5828 452.096 79.5511 452.096 79.5092C452.096 79.4775 452.086 79.4458 452.086 79.4141Z" fill="black"/>
</g>
</svg>
